{
  "source": "C:\\Users\\Peter\\Desktop\\stuff\\MIUN\\quantitative_research\\video_compression\\videos\\HEVC_CLASS_B\\BQTerrace_1920x1080_60.y4m",
  "output": "C:\\Users\\Peter\\Desktop\\stuff\\MIUN\\quantitative_research\\video_compression\\compressed_videos\\HEVC_CLASS_B\\h264\\3\\BQTerrace_1920x1080_60_h264.mp4",
  "codec": "h264",
  "ok": "Input #0, yuv4mpegpipe, from 'C:\\Users\\Peter\\Desktop\\stuff\\MIUN\\quantitative_research\\video_compression\\videos\\HEVC_CLASS_B\\BQTerrace_1920x1080_60.y4m':\n  Duration: 00:00:10.00, start: 0.000000, bitrate: 1492994 kb/s\n  Stream #0:0: Video: rawvideo (I420 / 0x30323449), yuv420p(progressive), 1920x1080, 60 fps, 60 tbr, 60 tbn\n[out#0/mp4 @ 0000020fcdec9880] Codec AVOption b:a (set bitrate (in bits/s)) has not been used for any stream. The most likely reason is either wrong type (e.g. a video option with no video streams) or that it is a private option of some decoder which was not actually used for any stream.\nStream mapping:\n  Stream #0:0 -> #0:0 (rawvideo (native) -> h264 (libx264))\nPress [q] to stop, [?] for help\n[libx264 @ 0000020fcdecc8c0] using cpu capabilities: MMX2 SSE2Fast SSSE3 SSE4.2 AVX FMA3 BMI2 AVX2\n[libx264 @ 0000020fcdecc8c0] profile High, level 5.0, 4:2:0, 8-bit\n[libx264 @ 0000020fcdecc8c0] 264 - core 165 r3222 b35605a - H.264/MPEG-4 AVC codec - Copyleft 2003-2025 - http://www.videolan.org/x264.html - options: cabac=1 ref=5 deblock=1:0:0 analyse=0x3:0x113 me=hex subme=8 psy=1 psy_rd=1.00:0.00 mixed_ref=1 me_range=16 chroma_me=1 trellis=2 8x8dct=1 cqm=0 deadzone=21,11 fast_pskip=1 chroma_qp_offset=-2 threads=18 lookahead_threads=3 sliced_threads=0 nr=0 decimate=1 interlaced=0 bluray_compat=0 constrained_intra=0 bframes=3 b_pyramid=2 b_adapt=1 b_bias=0 direct=3 weightb=1 open_gop=0 weightp=2 keyint=250 keyint_min=25 scenecut=40 intra_refresh=0 rc_lookahead=50 rc=cbr mbtree=1 bitrate=3000 ratetol=1.0 qcomp=0.60 qpmin=0 qpmax=69 qpstep=4 vbv_maxrate=3000 vbv_bufsize=3000 nal_hrd=none filler=0 ip_ratio=1.40 aq=1:1.00\nOutput #0, mp4, to 'C:\\Users\\Peter\\Desktop\\stuff\\MIUN\\quantitative_research\\video_compression\\compressed_videos\\HEVC_CLASS_B\\h264\\3\\BQTerrace_1920x1080_60_h264.mp4':\n  Metadata:\n    encoder         : Lavf62.3.100\n  Stream #0:0: Video: h264 (avc1 / 0x31637661), yuv420p(tv, progressive), 1920x1080, q=2-31, 3000 kb/s, 60 fps, 15360 tbn\n    Metadata:\n      encoder         : Lavc62.11.100 libx264\n    Side data:\n      cpb: bitrate max/min/avg: 3000000/0/3000000 buffer size: 3000000 vbv_delay: N/A\nframe=    0 fps=0.0 q=0.0 size=       0KiB time=N/A bitrate=N/A speed=N/A elapsed=0:00:00.50    \nframe=    0 fps=0.0 q=0.0 size=       0KiB time=N/A bitrate=N/A speed=N/A elapsed=0:00:01.21    \nframe=    0 fps=0.0 q=0.0 size=       0KiB time=N/A bitrate=N/A speed=N/A elapsed=0:00:01.78    \nframe=   18 fps=7.5 q=40.0 size=       0KiB time=00:00:00.16 bitrate=   2.3kbits/s speed=0.0695x elapsed=0:00:02.39    \nframe=   40 fps= 13 q=39.0 size=       0KiB time=00:00:00.56 bitrate=   0.7kbits/s speed=0.184x elapsed=0:00:03.07    \nframe=   58 fps= 16 q=38.0 size=       0KiB time=00:00:00.86 bitrate=   0.4kbits/s speed=0.233x elapsed=0:00:03.72    \nframe=   77 fps= 18 q=38.0 size=     256KiB time=00:00:01.20 bitrate=1747.9kbits/s speed=0.28x elapsed=0:00:04.28    \nframe=  101 fps= 21 q=38.0 size=     256KiB time=00:00:01.56 bitrate=1338.9kbits/s speed=0.319x elapsed=0:00:04.91    \nframe=  125 fps= 22 q=38.0 size=     512KiB time=00:00:02.00 bitrate=2097.3kbits/s speed=0.358x elapsed=0:00:05.59    \nframe=  144 fps= 23 q=38.0 size=     512KiB time=00:00:02.23 bitrate=1878.2kbits/s speed=0.361x elapsed=0:00:06.18    \nframe=  164 fps= 24 q=38.0 size=     768KiB time=00:00:02.58 bitrate=2435.6kbits/s speed=0.378x elapsed=0:00:06.83    \nframe=  190 fps= 25 q=38.0 size=     768KiB time=00:00:03.10 bitrate=2029.6kbits/s speed=0.413x elapsed=0:00:07.51    \nframe=  218 fps= 27 q=38.0 size=     768KiB time=00:00:03.50 bitrate=1797.7kbits/s speed=0.432x elapsed=0:00:08.10    \nframe=  233 fps= 26 q=38.0 size=    1024KiB time=00:00:03.85 bitrate=2179.0kbits/s speed=0.436x elapsed=0:00:08.82    \nframe=  255 fps= 27 q=38.0 size=    1024KiB time=00:00:04.13 bitrate=2029.6kbits/s speed=0.435x elapsed=0:00:09.51    \nframe=  272 fps= 27 q=38.0 size=    1280KiB time=00:00:04.50 bitrate=2330.3kbits/s speed=0.447x elapsed=0:00:10.06    \nframe=  300 fps= 28 q=38.0 size=    1280KiB time=00:00:04.86 bitrate=2154.7kbits/s speed=0.455x elapsed=0:00:10.68    \nframe=  323 fps= 28 q=38.0 size=    1280KiB time=00:00:05.26 bitrate=1991.0kbits/s speed=0.464x elapsed=0:00:11.35    \nframe=  348 fps= 29 q=38.0 size=    1536KiB time=00:00:05.68 bitrate=2214.1kbits/s speed=0.474x elapsed=0:00:12.00    \nframe=  375 fps= 29 q=38.0 size=    1536KiB time=00:00:06.10 bitrate=2062.8kbits/s speed=0.479x elapsed=0:00:12.73    \nframe=  401 fps= 30 q=38.0 size=    1792KiB time=00:00:06.53 bitrate=2247.0kbits/s speed=0.486x elapsed=0:00:13.43    \nframe=  420 fps= 30 q=38.0 size=    1792KiB time=00:00:06.86 bitrate=2137.9kbits/s speed=0.486x elapsed=0:00:14.12    \nframe=  443 fps= 30 q=39.0 size=    2048KiB time=00:00:07.23 bitrate=2319.5kbits/s speed=0.487x elapsed=0:00:14.85    \nframe=  472 fps= 30 q=39.0 size=    2048KiB time=00:00:07.76 bitrate=2160.2kbits/s speed=0.501x elapsed=0:00:15.49    \nframe=  483 fps= 30 q=39.0 size=    2048KiB time=00:00:08.01 bitrate=2092.8kbits/s speed=0.496x elapsed=0:00:16.15    \nframe=  500 fps= 30 q=39.0 size=    2304KiB time=00:00:08.30 bitrate=2274.1kbits/s speed=0.496x elapsed=0:00:16.74    \nframe=  517 fps= 30 q=38.0 size=    2304KiB time=00:00:08.56 bitrate=2203.3kbits/s speed=0.494x elapsed=0:00:17.32    \nframe=  541 fps= 30 q=37.0 size=    2560KiB time=00:00:08.91 bitrate=2352.0kbits/s speed=0.497x elapsed=0:00:17.92    \nframe=  567 fps= 31 q=37.0 size=    2560KiB time=00:00:09.38 bitrate=2235.0kbits/s speed=0.506x elapsed=0:00:18.52    \nframe=  591 fps= 31 q=-1.0 size=    2560KiB time=00:00:09.75 bitrate=2151.0kbits/s speed=0.509x elapsed=0:00:19.14    \n[mp4 @ 0000020fcdec9980] Starting second pass: moving the moov atom to the beginning of the file\n[out#0/mp4 @ 0000020fcdec9880] video:2835KiB audio:0KiB subtitle:0KiB other streams:0KiB global headers:0KiB muxing overhead: 0.278169%\nframe=  600 fps= 31 q=-1.0 Lsize=    2843KiB time=00:00:09.96 bitrate=2336.6kbits/s speed=0.515x elapsed=0:00:19.33    \n[libx264 @ 0000020fcdecc8c0] frame I:3     Avg QP:35.45  size: 80667\n[libx264 @ 0000020fcdecc8c0] frame P:151   Avg QP:35.74  size: 10138\n[libx264 @ 0000020fcdecc8c0] frame B:446   Avg QP:41.35  size:  2532\n[libx264 @ 0000020fcdecc8c0] consecutive B-frames:  0.8%  0.0%  0.5% 98.7%\n[libx264 @ 0000020fcdecc8c0] mb I  I16..4: 31.6% 53.1% 15.4%\n[libx264 @ 0000020fcdecc8c0] mb P  I16..4:  0.2%  0.3%  0.0%  P16..4: 24.4%  4.1%  3.4%  0.0%  0.0%    skip:67.5%\n[libx264 @ 0000020fcdecc8c0] mb B  I16..4:  0.0%  0.0%  0.0%  B16..8: 35.4%  0.4%  0.0%  direct: 0.1%  skip:64.0%  L0:41.6% L1:58.2% BI: 0.2%\n[libx264 @ 0000020fcdecc8c0] 8x8 transform intra:54.5% inter:63.7%\n[libx264 @ 0000020fcdecc8c0] direct mvs  spatial:97.8% temporal:2.2%\n[libx264 @ 0000020fcdecc8c0] coded y,uvDC,uvAC intra: 51.7% 33.6% 10.4% inter: 1.8% 0.8% 0.0%\n[libx264 @ 0000020fcdecc8c0] i16 v,h,dc,p: 33% 28%  5% 34%\n[libx264 @ 0000020fcdecc8c0] i8 v,h,dc,ddl,ddr,vr,hd,vl,hu: 14%  6% 10%  9% 10%  8% 11%  7% 25%\n[libx264 @ 0000020fcdecc8c0] i4 v,h,dc,ddl,ddr,vr,hd,vl,hu: 12%  6%  8%  8%  9%  9% 11% 10% 28%\n[libx264 @ 0000020fcdecc8c0] i8c dc,h,v,p: 38% 50%  9%  3%\n[libx264 @ 0000020fcdecc8c0] Weighted P-Frames: Y:9.9% UV:4.6%\n[libx264 @ 0000020fcdecc8c0] ref P L0: 55.0% 24.1% 12.6%  4.1%  3.8%  0.4%\n[libx264 @ 0000020fcdecc8c0] ref B L0: 86.9%  9.2%  3.1%  0.8%\n[libx264 @ 0000020fcdecc8c0] ref B L1: 95.8%  4.2%\n[libx264 @ 0000020fcdecc8c0] kb/s:2321.72\n",
  "seconds": 19.582255125045776,
  "probe_out": {}
}